# xmcd
#
# Track frame offsets: 
#        150
#        26985
#        45324
#        65297
#        89164
#        114107
#        135708
#        157343
#        184830
#        198586
#
# Disc length: 3011 seconds
#
# Revision: 0
# Processed by: cddbd v1.5.2PL0 Copyright (c) Steve Scherf et al.
# Submitted via: ExactAudioCopyFreeDBPlugin 1.0
#
DISCID=8e0bc10a
DTITLE=Thanh Lam - Khat vong
DYEAR=1900
DGENRE=
TTITLE0=Dong song lo dang
TTITLE1=Hoa tim ngay xua
TTITLE2=Ben em la bien rong
TTITLE3=Mot ngay mua dong
TTITLE4=Khat vong
TTITLE5=Trai tim khong ngu yen
TTITLE6=Song ve dau
TTITLE7=Gia tu di vang
TTITLE8=Chi toi
TTITLE9=Khoang khac
EXTD=
EXTT0=
EXTT1=
EXTT2=
EXTT3=
EXTT4=
EXTT5=
EXTT6=
EXTT7=
EXTT8=
EXTT9=
PLAYORDER=
